<?xml version="1.0" encoding="UTF-8"?>
<svg xmlns="http://www.w3.org/2000/svg" xmlns:xlink="http://www.w3.org/1999/xlink" width="24pt" height="24pt" viewBox="0 0 24 24" version="1.1">
<g id="surface2919327">
<path style=" stroke:none;fill-rule:nonzero;fill:rgb(100%,100%,100%);fill-opacity:1;" d="M 19.199219 18.480469 L 4.800781 18.480469 C 4.003906 18.480469 3.359375 17.835938 3.359375 17.039062 L 3.359375 6.960938 C 3.359375 6.164062 4.003906 5.519531 4.800781 5.519531 L 19.199219 5.519531 C 19.996094 5.519531 20.640625 6.164062 20.640625 6.960938 L 20.640625 17.039062 C 20.640625 17.835938 19.996094 18.480469 19.199219 18.480469 Z M 19.199219 18.480469 "/>
<path style=" stroke:none;fill-rule:nonzero;fill:rgb(0%,0%,0%);fill-opacity:1;" d="M 5.519531 18.480469 L 4.800781 18.480469 C 4.003906 18.480469 3.359375 17.835938 3.359375 17.039062 L 3.359375 6.960938 L 5.519531 6.960938 Z M 5.519531 18.480469 "/>
<path style=" stroke:none;fill-rule:nonzero;fill:rgb(0%,0%,0%);fill-opacity:1;" d="M 18.480469 18.480469 L 19.199219 18.480469 C 19.996094 18.480469 20.640625 17.835938 20.640625 17.039062 L 20.640625 6.960938 L 18.480469 6.960938 Z M 18.480469 18.480469 "/>
<path style=" stroke:none;fill-rule:nonzero;fill:rgb(0%,0%,0%);fill-opacity:1;" d="M 19.703125 5.761719 L 19.699219 5.761719 L 12 11.398438 L 4.300781 5.761719 L 4.296875 5.761719 C 3.847656 5.761719 3.480469 6.125 3.480469 6.578125 L 3.480469 6.953125 C 3.480469 7.332031 3.664062 7.695312 3.972656 7.917969 L 12 13.800781 L 20.027344 7.917969 C 20.335938 7.695312 20.519531 7.332031 20.519531 6.953125 L 20.519531 6.578125 C 20.519531 6.125 20.152344 5.761719 19.703125 5.761719 Z M 19.703125 5.761719 "/>
<path style=" stroke:none;fill-rule:nonzero;fill:rgb(100%,100%,100%);fill-opacity:1;" d="M 19.199219 18.71875 L 4.800781 18.71875 C 3.875 18.71875 3.121094 17.964844 3.121094 17.039062 L 3.121094 6.960938 C 3.121094 6.035156 3.875 5.28125 4.800781 5.28125 L 19.199219 5.28125 C 20.125 5.28125 20.878906 6.035156 20.878906 6.960938 L 20.878906 17.039062 C 20.878906 17.964844 20.125 18.71875 19.199219 18.71875 Z M 4.800781 5.761719 C 4.136719 5.761719 3.601562 6.296875 3.601562 6.960938 L 3.601562 17.039062 C 3.601562 17.703125 4.136719 18.238281 4.800781 18.238281 L 19.199219 18.238281 C 19.863281 18.238281 20.398438 17.703125 20.398438 17.039062 L 20.398438 6.960938 C 20.398438 6.296875 19.863281 5.761719 19.199219 5.761719 Z M 4.800781 5.761719 "/>
<path style=" stroke:none;fill-rule:nonzero;fill:rgb(100%,100%,100%);fill-opacity:1;" d="M 12 13.921875 C 11.976562 13.921875 11.949219 13.914062 11.929688 13.898438 L 3.898438 8.015625 C 3.5625 7.769531 3.359375 7.371094 3.359375 6.953125 L 3.601562 6.953125 C 3.601562 7.292969 3.765625 7.621094 4.042969 7.824219 L 12 13.652344 L 19.957031 7.824219 C 20.234375 7.621094 20.398438 7.292969 20.398438 6.953125 L 20.640625 6.953125 C 20.640625 7.371094 20.4375 7.769531 20.101562 8.015625 L 12.070312 13.898438 C 12.050781 13.914062 12.023438 13.921875 12 13.921875 Z M 12 13.921875 "/>
<path style=" stroke:none;fill-rule:nonzero;fill:rgb(100%,100%,100%);fill-opacity:1;" d="M 5.398438 17.761719 C 5.332031 17.761719 5.28125 17.707031 5.28125 17.640625 L 5.28125 9.71875 C 5.28125 9.652344 5.332031 9.601562 5.398438 9.601562 C 5.464844 9.601562 5.519531 9.652344 5.519531 9.71875 L 5.519531 17.640625 C 5.519531 17.707031 5.464844 17.761719 5.398438 17.761719 Z M 5.398438 17.761719 "/>
<path style=" stroke:none;fill-rule:nonzero;fill:rgb(100%,100%,100%);fill-opacity:1;" d="M 18.601562 14.878906 C 18.535156 14.878906 18.480469 14.828125 18.480469 14.761719 L 18.480469 9.71875 C 18.480469 9.652344 18.535156 9.601562 18.601562 9.601562 C 18.667969 9.601562 18.71875 9.652344 18.71875 9.71875 L 18.71875 14.761719 C 18.71875 14.828125 18.667969 14.878906 18.601562 14.878906 Z M 18.601562 14.878906 "/>
<path style=" stroke:none;fill-rule:nonzero;fill:rgb(100%,100%,100%);fill-opacity:1;" d="M 18.601562 16.800781 C 18.535156 16.800781 18.480469 16.746094 18.480469 16.679688 L 18.480469 15.480469 C 18.480469 15.414062 18.535156 15.359375 18.601562 15.359375 C 18.667969 15.359375 18.71875 15.414062 18.71875 15.480469 L 18.71875 16.679688 C 18.71875 16.746094 18.667969 16.800781 18.601562 16.800781 Z M 18.601562 16.800781 "/>
<path style=" stroke:none;fill-rule:nonzero;fill:rgb(100%,100%,100%);fill-opacity:1;" d="M 18.601562 17.761719 C 18.535156 17.761719 18.480469 17.707031 18.480469 17.640625 L 18.480469 17.398438 C 18.480469 17.332031 18.535156 17.28125 18.601562 17.28125 C 18.667969 17.28125 18.71875 17.332031 18.71875 17.398438 L 18.71875 17.640625 C 18.71875 17.707031 18.667969 17.761719 18.601562 17.761719 Z M 18.601562 17.761719 "/>
<path style=" stroke:none;fill-rule:nonzero;fill:rgb(100%,100%,100%);fill-opacity:1;" d="M 17.878906 7.214844 C 17.84375 7.214844 17.804688 7.195312 17.785156 7.164062 C 17.746094 7.109375 17.753906 7.035156 17.808594 6.996094 L 18.289062 6.644531 C 18.34375 6.605469 18.417969 6.617188 18.457031 6.671875 C 18.496094 6.722656 18.484375 6.800781 18.429688 6.839844 L 17.949219 7.191406 C 17.929688 7.207031 17.90625 7.214844 17.878906 7.214844 Z M 17.878906 7.214844 "/>
<path style=" stroke:none;fill-rule:nonzero;fill:rgb(100%,100%,100%);fill-opacity:1;" d="M 16.441406 8.269531 C 16.402344 8.269531 16.367188 8.25 16.34375 8.21875 C 16.304688 8.164062 16.316406 8.089844 16.367188 8.050781 L 17.328125 7.347656 C 17.382812 7.308594 17.457031 7.320312 17.496094 7.375 C 17.535156 7.425781 17.523438 7.503906 17.472656 7.542969 L 16.511719 8.246094 C 16.488281 8.261719 16.464844 8.269531 16.441406 8.269531 Z M 16.441406 8.269531 "/>
<path style=" stroke:none;fill-rule:nonzero;fill:rgb(100%,100%,100%);fill-opacity:1;" d="M 12 11.519531 C 11.976562 11.519531 11.949219 11.511719 11.929688 11.496094 L 4.144531 5.796875 C 4.09375 5.757812 4.082031 5.683594 4.121094 5.628906 C 4.160156 5.574219 4.234375 5.5625 4.289062 5.601562 L 12 11.25 L 15.863281 8.421875 C 15.914062 8.382812 15.988281 8.394531 16.027344 8.449219 C 16.066406 8.503906 16.058594 8.578125 16.003906 8.617188 L 12.070312 11.496094 C 12.050781 11.511719 12.023438 11.519531 12 11.519531 Z M 12 11.519531 "/>
</g>
</svg>
